<svg xmlns="http://www.w3.org/2000/svg" xmlns:xlink="http://www.w3.org/1999/xlink" width="307" height="102" viewBox="0 0 307 102">
  <defs>
    <filter id="FunTravel" x="0" y="0" width="307" height="102" filterUnits="userSpaceOnUse">
      <feOffset dy="10" input="SourceAlpha"/>
      <feGaussianBlur stdDeviation="5" result="blur"/>
      <feFlood flood-opacity="0.161"/>
      <feComposite operator="in" in2="blur"/>
      <feComposite in="SourceGraphic"/>
    </filter>
  </defs>
  <g id="Component_2_1" data-name="Component 2 – 1" transform="translate(15 5)">
    <g transform="matrix(1, 0, 0, 1, -15, -5)" filter="url(#FunTravel)">
      <text id="FunTravel-2" data-name="FunTravel" transform="translate(15 64)" fill="#555" font-size="60" font-family="HelveticaNeue-Bold, Helvetica Neue" font-weight="700"><tspan x="0" y="0">FunTravel</tspan></text>
    </g>
    <path id="plane" d="M43.517.527q1.392.736.38,2.094a8.5,8.5,0,0,1-3.415,2.434L35.391,7.334l5.06,9.849q.158.269-.38.467l-4.048,1.359a1.728,1.728,0,0,1-.6.085,1.5,1.5,0,0,1-.221-.014,1.092,1.092,0,0,1-.664-.226l-8.824-7.189L17.521,15.33,19.2,18.075q.158.241-.254.439l-3.037,1.359A1.79,1.79,0,0,1,15.18,20h-.063a1.815,1.815,0,0,1-.759-.184L8.381,16.25.411,13.575q-.348-.1-.411-.325-.032-.184.284-.354l3.037-1.373a1.79,1.79,0,0,1,.727-.127,1.418,1.418,0,0,1,.254.014l6.135.75L18.628,8.5,2.562,4.547q-.443-.113-.538-.34-.063-.226.284-.382L6.357,2.013A1.789,1.789,0,0,1,7.306,1.9L28.337,4.15,33.4,1.885A20.778,20.778,0,0,1,38.837.357a9.69,9.69,0,0,1,4.68.17Z" transform="translate(177.46 3.833)" fill="#3177aa"/>
  </g>
</svg>
