<svg xmlns="http://www.w3.org/2000/svg" width="556.012" height="169.318" viewBox="0 0 556.012 169.318">
  <g id="Group_98" data-name="Group 98" transform="translate(-242.001 -2316)">
    <path id="Path_876" data-name="Path 876" d="M4669.173,1607.838s51.2.815,123.548-18.544c1.3-.349,2.592-.689,4.041-1.065,69.527-18.075,102.6-12.427,108.031-41.467,5.532-29.572-8.1-48.123-55.671-48.993-46.094-.843-57.521,33.737-48.762,63.575s3.346,47.773,83.8,55.776,152.588-34.943,152.588-34.943l98.818-60.788" transform="translate(-4425.648 865.676)" fill="none" stroke="#707070" stroke-linecap="round" stroke-linejoin="round" stroke-width="3" stroke-dasharray="10"/>
    <path id="paper-plane" d="M70.113.437a2.483,2.483,0,0,1,1.072,2.544L61.01,64.029a2.5,2.5,0,0,1-1.272,1.788,2.435,2.435,0,0,1-1.233.319,2.682,2.682,0,0,1-.954-.2l-18-7.354L29.929,70.308a2.341,2.341,0,0,1-1.947.914,2.159,2.159,0,0,1-.874-.158,2.543,2.543,0,0,1-1.67-2.386V54.808l34.339-42.09L17.291,49.482l-15.7-6.438a2.515,2.515,0,0,1-.319-4.531L67.408.358A2.427,2.427,0,0,1,68.68,0a2.464,2.464,0,0,1,1.43.437Z" transform="translate(729.55 2316) rotate(16)" fill="rgba(19,87,190,0.5)"/>
  </g>
</svg>
